<svg width="90" height="44" viewBox="0 0 90 44" fill="none" xmlns="http://www.w3.org/2000/svg">
<path d="M22 20.5C21.6022 20.5 21.2206 20.658 20.9393 20.9393C20.658 21.2206 20.5 21.6022 20.5 22C20.5 22.3978 20.658 22.7794 20.9393 23.0607C21.2206 23.342 21.6022 23.5 22 23.5C22.3978 23.5 22.7794 23.342 23.0607 23.0607C23.342 22.7794 23.5 22.3978 23.5 22C23.5 21.6022 23.342 21.2206 23.0607 20.9393C22.7794 20.658 22.3978 20.5 22 20.5ZM22 20.5V12" stroke="white" stroke-width="1.5" stroke-linecap="round" stroke-linejoin="round"/>
<path d="M22 32C27.5228 32 32 27.5228 32 22C32 16.4772 27.5228 12 22 12C16.4772 12 12 16.4772 12 22C12 27.5228 16.4772 32 22 32Z" stroke="white" stroke-width="1.5" stroke-linecap="round" stroke-linejoin="round"/>
<path d="M25 18C29.057 18.522 32 20.073 32 21.906C32 24.167 27.523 26 22 26C16.477 26 12 24.167 12 21.906C12 20.073 14.943 18.522 19 18" stroke="white" stroke-width="1.5" stroke-linecap="round" stroke-linejoin="round"/>
<path d="M44.072 19.436V18.212H50.312V19.436H47.582L47.9 19.112V26H46.484V19.112L46.802 19.436H44.072ZM50.0999 26L52.7519 18.212H54.5279L57.0719 26H55.5839L55.0439 24.32H52.1519L51.5999 26H50.0999ZM52.5119 23.252H54.7079L53.6159 19.904L52.5119 23.252ZM62.9637 18.212H64.9077L59.7717 23.468V21.536L62.9637 18.212ZM61.2357 21.428L65.1237 26H63.2997L60.2517 22.352L61.2357 21.428ZM58.4637 18.212H59.8917V26H58.4637V18.212ZM65.2712 19.436V18.212H71.5112V19.436H68.7812L69.0992 19.112V26H67.6832V19.112L68.0012 19.436H65.2712ZM75.6662 26.168C74.9742 26.168 74.3622 26.016 73.8302 25.712C73.3022 25.408 72.8882 24.954 72.5882 24.35C72.2882 23.746 72.1382 22.996 72.1382 22.1C72.1382 21.188 72.2882 20.434 72.5882 19.838C72.8882 19.238 73.3022 18.792 73.8302 18.5C74.3622 18.204 74.9742 18.056 75.6662 18.056C76.3622 18.056 76.9762 18.208 77.5082 18.512C78.0402 18.812 78.4562 19.262 78.7562 19.862C79.0562 20.462 79.2062 21.208 79.2062 22.1C79.2062 23.008 79.0562 23.764 78.7562 24.368C78.4562 24.972 78.0402 25.424 77.5082 25.724C76.9762 26.02 76.3622 26.168 75.6662 26.168ZM75.6662 24.884C76.3022 24.884 76.8062 24.644 77.1782 24.164C77.5542 23.684 77.7422 22.992 77.7422 22.088C77.7422 21.216 77.5542 20.538 77.1782 20.054C76.8062 19.57 76.3022 19.328 75.6662 19.328C75.0422 19.328 74.5422 19.572 74.1662 20.06C73.7902 20.544 73.6022 21.224 73.6022 22.1C73.6022 23 73.7902 23.69 74.1662 24.17C74.5422 24.646 75.0422 24.884 75.6662 24.884Z" fill="white"/>
</svg>
